<svg version="1.1" xmlns="http://www.w3.org/2000/svg" viewBox="0 0 756.077235174179 618.8994742227554" width="756.077235174179" height="618.8994742227554">
  <!-- svg-source:excalidraw -->
  
  <defs>
    <style>
      @font-face {
        font-family: "Virgil";
        src: url("https://excalidraw.com/Virgil.woff2");
      }
      @font-face {
        font-family: "Cascadia";
        src: url("https://excalidraw.com/Cascadia.woff2");
      }
    </style>
  </defs>
  <g stroke-linecap="round"><g transform="translate(295.3678838178515 103.67503391782043) rotate(0 51.30330562905914 205.7747031935573)"><path d="M-0.43 0 C7.24 -10.1, 35.62 -54.2, 46.7 -61.8 C57.78 -69.41, 56.36 -40.39, 66.05 -45.62 C75.75 -50.85, 82.95 -100.17, 104.85 -93.16 C126.75 -86.16, 162.8 -36.67, 197.44 -3.58 C232.09 29.51, 292.82 63.21, 312.71 105.4 C332.6 147.58, 325.63 205.7, 316.77 249.5 C307.92 293.3, 272.57 355.3, 259.57 368.2 C246.57 381.1, 251.38 319.69, 238.8 326.9 C226.21 334.11, 197.28 400.01, 184.05 411.45 C170.81 422.89, 177.82 379.92, 159.39 395.55 C140.96 411.18, 99.79 509.24, 73.48 505.22 C47.18 501.21, 17.78 387.09, 1.56 371.46 C-14.67 355.84, -7.83 417.06, -23.86 411.48 C-39.88 405.89, -74.78 373.44, -94.57 337.93 C-114.35 302.43, -128.38 219.06, -142.58 198.43 C-156.77 177.79, -167.2 241.3, -179.73 214.12 C-192.26 186.95, -239.4 64.73, -217.77 35.39 C-196.14 6.05, -86.19 43.98, -49.96 38.07 C-13.73 32.16, -8.88 6.16, -0.38 -0.07 M1.55 -1.04 C8.97 -10.91, 34.87 -53.42, 45.59 -60.69 C56.3 -67.95, 55.94 -39.3, 65.84 -44.63 C75.75 -49.96, 82.77 -99.52, 105.02 -92.67 C127.27 -85.81, 164.52 -36.37, 199.34 -3.5 C234.17 29.38, 294.22 62.05, 313.97 104.56 C333.72 147.07, 327.1 207.57, 317.82 251.56 C308.55 295.55, 271.7 356.08, 258.32 368.49 C244.94 380.89, 249.87 318.87, 237.54 325.99 C225.21 333.12, 197.34 399.52, 184.32 411.23 C171.29 422.95, 177.53 380.77, 159.39 396.3 C141.24 411.83, 101.68 508.63, 75.46 504.39 C49.24 500.16, 18.21 386.36, 2.08 370.88 C-14.05 355.41, -5.33 417.04, -21.35 411.53 C-37.36 406.03, -74.02 373.22, -94.01 337.87 C-114.01 302.51, -127.37 219.87, -141.32 199.38 C-155.27 178.89, -164.78 242.17, -177.71 214.93 C-190.64 187.7, -240.52 65.47, -218.93 35.96 C-197.34 6.44, -84.66 43.54, -48.19 37.84 C-11.72 32.14, -8.21 8.1, -0.09 1.77" stroke="#000000" stroke-width="1" fill="none"></path></g></g><g stroke-linecap="round"><g transform="translate(10.36788381785152 103.67503391782043) rotate(0 367.670733769238 0.2303173560183609)"><path d="M-0.37 -0.52 C122.32 -0.36, 613.06 0.37, 735.71 0.5 M1.64 1.82 C124.18 1.67, 612.46 -1.34, 734.61 -1.36" stroke="#000000" stroke-width="1" fill="none"></path></g></g><g transform="translate(349.3678838178515 62.67503391782043) rotate(0 42 13)"><text x="0" y="18" font-family="Virgil, Segoe UI Emoji" font-size="20px" fill="#000000" text-anchor="start" style="white-space: pre;" direction="ltr">Nos élus</text></g><g transform="translate(369.3678838178515 290.67503391782043) rotate(0 8.5 23)"><text x="0" y="32" font-family="Virgil, Segoe UI Emoji" font-size="36px" fill="#000000" text-anchor="start" style="white-space: pre;" direction="ltr">?</text></g></svg>