<svg version="1.1" xmlns="http://www.w3.org/2000/svg" viewBox="0 0 855.5 585" width="1711" height="1170">
  <!-- svg-source:excalidraw -->
  
  <defs>
    <style>
      @font-face {
        font-family: "Virgil";
        src: url("https://excalidraw.com/Virgil.woff2");
      }
      @font-face {
        font-family: "Cascadia";
        src: url("https://excalidraw.com/Cascadia.woff2");
      }
    </style>
  </defs>
  <g transform="translate(314 10) rotate(0 33 23)"><text x="0" y="32" font-family="Virgil, Segoe UI Emoji" font-size="36px" fill="#000000" text-anchor="start" style="white-space: pre;" direction="ltr">Élus</text></g><g transform="translate(10 529) rotate(0 98.5 23)"><text x="0" y="32" font-family="Virgil, Segoe UI Emoji" font-size="36px" fill="#000000" text-anchor="start" style="white-space: pre;" direction="ltr">Entreprises</text></g><g transform="translate(594 516) rotate(0 72.5 23)"><text x="0" y="32" font-family="Virgil, Segoe UI Emoji" font-size="36px" fill="#000000" text-anchor="start" style="white-space: pre;" direction="ltr">Citoyens</text></g><g transform="translate(216 266) rotate(0 132 23)"><text x="0" y="32" font-family="Virgil, Segoe UI Emoji" font-size="36px" fill="#000000" text-anchor="start" style="white-space: pre;" direction="ltr">Administrations</text></g><g stroke-linecap="round"><g transform="translate(319.4107502993634 58) rotate(0 -8.832957451005427 99.90495277642273)"><path d="M0.58 -0.05 C-2.32 18.12, -17.38 74.57, -17.74 107.93 C-18.11 141.28, -4.48 184.64, -1.6 200.09 M-0.58 -1.12 C-3.54 16.82, -18.55 72.61, -18.34 106.29 C-18.13 139.96, -2.35 185.06, 0.68 200.93" stroke="#000000" stroke-width="1" fill="none"></path></g><g transform="translate(319.4107502993634 58) rotate(0 -8.832957451005427 99.90495277642273)"><path d="M-16.35 177.28 C-10.41 180.75, -8.93 189.35, 0.02 199.82 M-15.33 176.96 C-10.34 183.64, -6.21 192.35, -0.14 200.11" stroke="#000000" stroke-width="1" fill="none"></path></g><g transform="translate(319.4107502993634 58) rotate(0 -8.832957451005427 99.90495277642273)"><path d="M3.53 172.18 C4.1 177.11, 0.25 187.08, 0.02 199.82 M4.55 171.86 C3.16 180.19, 0.93 190.52, -0.14 200.11" stroke="#000000" stroke-width="1" fill="none"></path></g></g><g stroke-linecap="round"><g transform="translate(365 252) rotate(0 9.042231868486738 -94.51728835403921)"><path d="M0.14 -0.26 C4.31 -12.67, 26.21 -42.87, 25.03 -74.29 C23.85 -105.71, -1.59 -169.8, -6.94 -188.77 M-1.25 -1.45 C2.77 -14.21, 24.62 -44.97, 24.1 -76.04 C23.57 -107.11, 0.81 -169.36, -4.43 -187.86" stroke="#000000" stroke-width="1" fill="none"></path></g><g transform="translate(365 252) rotate(0 9.042231868486738 -94.51728835403921)"><path d="M13.42 -164.03 C9.57 -172.34, 1.66 -179.67, -4.61 -189.38 M14.26 -164.1 C9.41 -171.95, 2.18 -176.91, -4.67 -188.4" stroke="#000000" stroke-width="1" fill="none"></path></g><g transform="translate(365 252) rotate(0 9.042231868486738 -94.51728835403921)"><path d="M-6.14 -157.84 C-4.18 -168.01, -6.27 -177.19, -4.61 -189.38 M-5.3 -157.9 C-4.57 -167.43, -6.19 -174.16, -4.67 -188.4" stroke="#000000" stroke-width="1" fill="none"></path></g></g><g stroke-linecap="round"><g transform="translate(74.1524507284712 523) rotate(0 74.00128398832922 -106.54604234397414)"><path d="M-0.66 0.25 C10.44 -18.72, 41.9 -78.07, 66.79 -113.67 C91.68 -149.27, 135.02 -196.79, 148.67 -213.34 M1.19 -0.66 C12.11 -19.5, 41.37 -77.23, 65.81 -112.49 C90.24 -147.75, 133.96 -195.64, 147.8 -212.21" stroke="#000000" stroke-width="1" fill="none"></path></g><g transform="translate(74.1524507284712 523) rotate(0 74.00128398832922 -106.54604234397414)"><path d="M137.53 -184.27 C139.33 -193.26, 143.24 -202.06, 147.82 -212.17 M136.85 -184.91 C140.33 -190.64, 142.01 -199.5, 147.84 -211.7" stroke="#000000" stroke-width="1" fill="none"></path></g><g transform="translate(74.1524507284712 523) rotate(0 74.00128398832922 -106.54604234397414)"><path d="M122.02 -197.7 C128.72 -202.37, 137.53 -206.94, 147.82 -212.17 M121.33 -198.34 C128.94 -200.46, 134.69 -205.79, 147.84 -211.7" stroke="#000000" stroke-width="1" fill="none"></path></g></g><g stroke-linecap="round"><g transform="translate(259 314) rotate(0 -63.05921362801712 104.76002218044829)"><path d="M0.89 1.07 C-7.94 19.25, -32.4 74.61, -53.69 109.25 C-74.97 143.9, -114.6 192.37, -126.82 208.93 M-0.1 0.59 C-9 18.36, -33.32 72.85, -54.47 107.26 C-75.62 141.68, -115.03 190.55, -127.01 207.08" stroke="#000000" stroke-width="1" fill="none"></path></g><g transform="translate(259 314) rotate(0 -63.05921362801712 104.76002218044829)"><path d="M-116.36 178.94 C-119.81 187.21, -120.81 193.77, -125.92 207.32 M-117.98 178.06 C-119.56 185.37, -122.03 193.19, -126.81 206.13" stroke="#000000" stroke-width="1" fill="none"></path></g><g transform="translate(259 314) rotate(0 -63.05921362801712 104.76002218044829)"><path d="M-100.01 191.34 C-107.41 196.75, -112.35 200.32, -125.92 207.32 M-101.63 190.46 C-107.42 194.75, -113.97 199.47, -126.81 206.13" stroke="#000000" stroke-width="1" fill="none"></path></g></g><g stroke-linecap="round"><g transform="translate(435 321) rotate(0 91.93619965210075 94.9690866474761)"><path d="M0.23 -0.52 C12.72 19.29, 44.27 87.67, 74.68 119.27 C105.09 150.87, 164.37 177.38, 182.7 189.09 M-1.1 1.82 C11.21 21.21, 42.56 85.85, 73.57 117.29 C104.58 148.73, 166.35 178.8, 184.98 190.46" stroke="#000000" stroke-width="1" fill="none"></path></g><g transform="translate(435 321) rotate(0 91.93619965210075 94.9690866474761)"><path d="M154.53 184.93 C164.2 184.85, 172.24 189.54, 185.87 190.59 M155.63 185.53 C163.33 186.19, 169.29 187.43, 185.42 189.6" stroke="#000000" stroke-width="1" fill="none"></path></g><g transform="translate(435 321) rotate(0 91.93619965210075 94.9690866474761)"><path d="M164.66 167.09 C171.54 172.05, 176.72 181.77, 185.87 190.59 M165.76 167.68 C170.95 172.77, 174.37 178.5, 185.42 189.6" stroke="#000000" stroke-width="1" fill="none"></path></g></g><g stroke-linecap="round"><g transform="translate(674.0633936823233 506) rotate(0 -90.47550964084502 -93.04853949261218)"><path d="M-0.38 -1.12 C-12.73 -21.58, -43.82 -92.34, -74.12 -123.32 C-104.43 -154.3, -163.96 -176.3, -182.22 -187 M1.62 0.9 C-10.81 -19.33, -43.88 -90.86, -74.58 -121.95 C-105.28 -153.03, -164.38 -174.82, -182.57 -185.6" stroke="#c92a2a" stroke-width="1" fill="none"></path></g><g transform="translate(674.0633936823233 506) rotate(0 -90.47550964084502 -93.04853949261218)"><path d="M-154.62 -180.74 C-162.18 -182.08, -170.29 -185.46, -183.18 -183.85 M-152.21 -182.04 C-160.83 -184.28, -169.64 -183.87, -181.76 -186.55" stroke="#c92a2a" stroke-width="1" fill="none"></path></g><g transform="translate(674.0633936823233 506) rotate(0 -90.47550964084502 -93.04853949261218)"><path d="M-163.72 -162.34 C-168.47 -169.15, -173.86 -178.04, -183.18 -183.85 M-161.3 -163.64 C-167.44 -171.21, -173.6 -176.15, -181.76 -186.55" stroke="#c92a2a" stroke-width="1" fill="none"></path></g></g><g transform="translate(141 140) rotate(0 58.5 26)"><text x="58.5" y="18" font-family="Virgil, Segoe UI Emoji" font-size="20px" fill="#000000" text-anchor="middle" style="white-space: pre;" direction="ltr">Influencent</text><text x="58.5" y="44" font-family="Virgil, Segoe UI Emoji" font-size="20px" fill="#000000" text-anchor="middle" style="white-space: pre;" direction="ltr">(Programme)</text></g><g transform="translate(401 142) rotate(0 81 26)"><text x="81" y="18" font-family="Virgil, Segoe UI Emoji" font-size="20px" fill="#000000" text-anchor="middle" style="white-space: pre;" direction="ltr">Restreignent</text><text x="81" y="44" font-family="Virgil, Segoe UI Emoji" font-size="20px" fill="#000000" text-anchor="middle" style="white-space: pre;" direction="ltr">et accompagnent</text></g><g transform="translate(217 395) rotate(0 81 26)"><text x="81" y="18" font-family="Virgil, Segoe UI Emoji" font-size="20px" fill="#000000" text-anchor="middle" style="white-space: pre;" direction="ltr">Restreignent</text><text x="81" y="44" font-family="Virgil, Segoe UI Emoji" font-size="20px" fill="#000000" text-anchor="middle" style="white-space: pre;" direction="ltr">et accompagnent</text></g><g transform="translate(12 309) rotate(0 53.5 26)"><text x="53.5" y="18" font-family="Virgil, Segoe UI Emoji" font-size="20px" fill="#000000" text-anchor="middle" style="white-space: pre;" direction="ltr">Influencent</text><text x="53.5" y="44" font-family="Virgil, Segoe UI Emoji" font-size="20px" fill="#000000" text-anchor="middle" style="white-space: pre;" direction="ltr">(Lobbies)</text></g><g transform="translate(371 454) rotate(0 81 26)"><text x="81" y="18" font-family="Virgil, Segoe UI Emoji" font-size="20px" fill="#000000" text-anchor="middle" style="white-space: pre;" direction="ltr">Restreignent</text><text x="81" y="44" font-family="Virgil, Segoe UI Emoji" font-size="20px" fill="#000000" text-anchor="middle" style="white-space: pre;" direction="ltr">et accompagnent</text></g><g transform="translate(549.5 301) rotate(0 94.5 26)"><text x="94.5" y="18" font-family="Virgil, Segoe UI Emoji" font-size="20px" fill="#c92a2a" text-anchor="middle" style="white-space: pre;" direction="ltr">Influencent</text><text x="94.5" y="44" font-family="Virgil, Segoe UI Emoji" font-size="20px" fill="#c92a2a" text-anchor="middle" style="white-space: pre;" direction="ltr">Militantisme Citoyen</text></g><g stroke-linecap="round"><g transform="translate(733 501) rotate(0 -148.9495781636477 -231.7851533859968)"><path d="M-0.74 0.81 C3.06 -65.23, 80.57 -318.43, 23.67 -395.96 C-33.22 -473.49, -281.14 -452.91, -342.11 -464.38" stroke="#000000" stroke-width="1.5" fill="none" stroke-dasharray="1.5 7"></path></g><g transform="translate(733 501) rotate(0 -148.9495781636477 -231.7851533859968)"><path d="M-312.05 -473.64 C-325.7 -471.86, -335.46 -468.68, -343.43 -463.84" stroke="#000000" stroke-width="1.5" fill="none" stroke-dasharray="1.5 5"></path></g><g transform="translate(733 501) rotate(0 -148.9495781636477 -231.7851533859968)"><path d="M-313.17 -453.15 C-326.45 -459.02, -335.79 -463.49, -343.43 -463.84" stroke="#000000" stroke-width="1.5" fill="none" stroke-dasharray="1.5 5"></path></g></g><g stroke-opacity="0.5" fill-opacity="0.5" transform="translate(784.5 84) rotate(0 30.5 13)"><text x="30.5" y="18" font-family="Virgil, Segoe UI Emoji" font-size="20px" fill="#000000" text-anchor="middle" style="white-space: pre;" direction="ltr">Élisent</text></g><g stroke-opacity="0.3" fill-opacity="0.3" stroke-linecap="round" transform="translate(536 273) rotate(0 109 55)"><path d="M85.16 2.15 C98.57 -0.54, 116.37 -0.2, 130.77 1.05 C145.17 2.3, 159.8 5, 171.57 9.66 C183.35 14.31, 193.88 22.14, 201.44 28.99 C209 35.84, 215.04 43.69, 216.91 50.75 C218.78 57.81, 217.41 64.12, 212.66 71.34 C207.9 78.57, 198.63 88.08, 188.4 94.09 C178.18 100.11, 165.09 104.61, 151.3 107.44 C137.51 110.27, 120.5 111.34, 105.68 111.07 C90.85 110.81, 76.01 109.12, 62.36 105.85 C48.71 102.57, 33.33 97.13, 23.77 91.42 C14.22 85.71, 9.1 78.93, 5.02 71.58 C0.94 64.23, -2.48 54.97, -0.71 47.31 C1.06 39.65, 7.28 32.11, 15.63 25.62 C23.98 19.13, 30.8 12.44, 49.39 8.36 C67.97 4.28, 108.2 1.07, 127.13 1.13 C146.06 1.2, 163.59 7.64, 162.98 8.76 M103.09 2.55 C117.02 0.39, 131.86 -0.47, 145.13 1.47 C158.41 3.41, 171.93 8.57, 182.73 14.19 C193.54 19.8, 204.07 28.25, 209.98 35.15 C215.89 42.05, 219.03 48.15, 218.21 55.6 C217.38 63.06, 211.93 72.51, 205.04 79.91 C198.16 87.31, 187.93 95.68, 176.9 100.02 C165.87 104.36, 153.34 104.6, 138.85 105.94 C124.36 107.27, 105.06 109.17, 89.95 108.02 C74.85 106.87, 60.65 103.38, 48.24 99.05 C35.83 94.72, 23.16 88.26, 15.49 82.02 C7.82 75.78, 3.99 68.38, 2.21 61.61 C0.44 54.84, 0.95 48.17, 4.84 41.39 C8.72 34.6, 15.91 27.02, 25.53 20.9 C35.15 14.79, 50.32 8.26, 62.57 4.71 C74.82 1.16, 92.72 0.13, 99.05 -0.38 C105.38 -0.89, 100.42 0.54, 100.56 1.65" stroke="#c92a2a" stroke-width="2" fill="none"></path></g></svg>