<svg version="1.1" xmlns="http://www.w3.org/2000/svg" viewBox="0 0 956 739" width="1912" height="1478">
  <!-- svg-source:excalidraw -->
  
  <defs>
    <style>
      @font-face {
        font-family: "Virgil";
        src: url("https://excalidraw.com/Virgil.woff2");
      }
      @font-face {
        font-family: "Cascadia";
        src: url("https://excalidraw.com/Cascadia.woff2");
      }
    </style>
  </defs>
  <g transform="translate(455.5 10) rotate(0 33 23)"><text x="0" y="32" font-family="Virgil, Segoe UI Emoji" font-size="36px" fill="#000000" text-anchor="start" style="white-space: pre;" direction="ltr">Élus</text></g><g transform="translate(121.5 527) rotate(0 98.5 23)"><text x="0" y="32" font-family="Virgil, Segoe UI Emoji" font-size="36px" fill="#000000" text-anchor="start" style="white-space: pre;" direction="ltr">Entreprises</text></g><g transform="translate(667.5 520) rotate(0 72.5 23)"><text x="0" y="32" font-family="Virgil, Segoe UI Emoji" font-size="36px" fill="#000000" text-anchor="start" style="white-space: pre;" direction="ltr">Citoyens</text></g><g transform="translate(371.5 284) rotate(0 132 23)"><text x="0" y="32" font-family="Virgil, Segoe UI Emoji" font-size="36px" fill="#000000" text-anchor="start" style="white-space: pre;" direction="ltr">Administrations</text></g><g stroke-linecap="round"><g transform="translate(455.45418806487646 57.999475247808846) rotate(0 -9.133099980107772 108.90521515251831)"><path d="M0.58 -0.05 C-4.57 17.45, -33.08 67.57, -31.29 103.93 C-29.49 140.28, 4.04 198.98, 11.35 218.09 M-0.58 -1.12 C-5.8 16.15, -34.25 65.61, -31.89 102.29 C-29.52 138.96, 6.18 199.39, 13.62 218.93" stroke="#000000" stroke-width="1" fill="none"></path></g><g transform="translate(455.45418806487646 57.999475247808846) rotate(0 -9.133099980107772 108.90521515251831)"><path d="M-7.76 198.91 C-0.62 201.38, 2.03 209.02, 12.96 217.82 M-6.74 198.59 C-0.36 204.11, 5.17 211.65, 12.8 218.11" stroke="#000000" stroke-width="1" fill="none"></path></g><g transform="translate(455.45418806487646 57.999475247808846) rotate(0 -9.133099980107772 108.90521515251831)"><path d="M10.81 190.17 C12.89 195.07, 10.56 205.05, 12.96 217.82 M11.82 189.84 C12.25 198.17, 11.83 208.51, 12.8 218.11" stroke="#000000" stroke-width="1" fill="none"></path></g></g><g stroke-linecap="round"><g transform="translate(509.1966954735427 270) rotate(0 5.272132242683256 -103.51728835403921)"><path d="M0.14 -0.26 C4.2 -17.5, 26.65 -68.87, 24.33 -103.29 C22.01 -137.71, -7.41 -189.64, -13.79 -206.77 M-1.25 -1.45 C2.66 -19.04, 25.07 -70.97, 23.4 -105.04 C21.73 -139.11, -5.01 -189.19, -11.27 -205.86" stroke="#000000" stroke-width="1" fill="none"></path></g><g transform="translate(509.1966954735427 270) rotate(0 5.272132242683256 -103.51728835403921)"><path d="M9 -184.1 C4.43 -191.79, -4.2 -198.51, -11.45 -207.38 M9.84 -184.17 C4.31 -191.44, -3.63 -195.8, -11.52 -206.4" stroke="#000000" stroke-width="1" fill="none"></path></g><g transform="translate(509.1966954735427 270) rotate(0 5.272132242683256 -103.51728835403921)"><path d="M-9.8 -175.87 C-8.79 -186.03, -11.83 -195.2, -11.45 -207.38 M-8.96 -175.94 C-9.15 -185.47, -11.68 -192.19, -11.52 -206.4" stroke="#000000" stroke-width="1" fill="none"></path></g></g><g stroke-linecap="round"><g transform="translate(191.7287045073423 521) rotate(0 85.96315709889367 -106.86292425565063)"><path d="M-0.66 0.25 C11.26 -19.05, 42.84 -79.97, 71.71 -115.67 C100.59 -151.38, 155.77 -197.65, 172.59 -213.98 M1.19 -0.66 C12.93 -19.84, 42.31 -79.13, 70.73 -114.49 C99.16 -149.85, 154.72 -196.5, 171.73 -212.84" stroke="#000000" stroke-width="1" fill="none"></path></g><g transform="translate(191.7287045073423 521) rotate(0 85.96315709889367 -106.86292425565063)"><path d="M158.19 -186.38 C161.01 -194.89, 165.96 -203.22, 171.74 -212.8 M157.5 -187.02 C161.85 -192.34, 164.38 -200.82, 171.77 -212.34" stroke="#000000" stroke-width="1" fill="none"></path></g><g transform="translate(191.7287045073423 521) rotate(0 85.96315709889367 -106.86292425565063)"><path d="M144.39 -201.57 C151.58 -205.21, 160.89 -208.76, 171.74 -212.8 M143.7 -202.2 C151.73 -203.47, 157.88 -207.95, 171.77 -212.34" stroke="#000000" stroke-width="1" fill="none"></path></g></g><g stroke-linecap="round"><g transform="translate(397.9298907417873 332) rotate(0 -77.11158809643348 94.76002218044829)"><path d="M0.89 1.07 C-10.68 15.58, -44.15 55.94, -70.12 87.25 C-96.09 118.56, -140.75 172.03, -154.92 188.93 M-0.1 0.59 C-11.74 14.7, -45.07 54.18, -70.9 85.26 C-96.74 116.35, -141.19 170.22, -155.11 187.08" stroke="#000000" stroke-width="1" fill="none"></path></g><g transform="translate(397.9298907417873 332) rotate(0 -77.11158809643348 94.76002218044829)"><path d="M-143.29 159.33 C-147.02 167.52, -148.31 173.98, -154.02 187.32 M-144.91 158.45 C-146.79 165.67, -149.55 173.39, -154.91 186.13" stroke="#000000" stroke-width="1" fill="none"></path></g><g transform="translate(397.9298907417873 332) rotate(0 -77.11158809643348 94.76002218044829)"><path d="M-127.47 172.39 C-135.03 177.56, -140.12 180.87, -154.02 187.32 M-129.09 171.51 C-135.05 175.54, -141.77 179.99, -154.91 186.13" stroke="#000000" stroke-width="1" fill="none"></path></g></g><g stroke-linecap="round"><g transform="translate(584.6712045023884 339) rotate(0 62.2885227216488 87.9690866474761)"><path d="M0.23 -0.52 C8.19 15.62, 26.98 68, 47.51 97.27 C68.04 126.54, 110.43 162.05, 123.4 175.09 M-1.1 1.82 C6.69 17.55, 25.27 66.19, 46.4 95.29 C67.53 124.4, 112.41 163.46, 125.68 176.46" stroke="#000000" stroke-width="1" fill="none"></path></g><g transform="translate(584.6712045023884 339) rotate(0 62.2885227216488 87.9690866474761)"><path d="M97.22 164.16 C106.36 165.99, 113.83 172.59, 126.58 176.59 M98.31 164.76 C105.53 167.11, 111 170.06, 126.13 175.6" stroke="#000000" stroke-width="1" fill="none"></path></g><g transform="translate(584.6712045023884 339) rotate(0 62.2885227216488 87.9690866474761)"><path d="M111.24 149.18 C116.48 155.26, 120 166.08, 126.58 176.59 M112.33 149.77 C116.06 155.82, 118 162.53, 126.13 175.6" stroke="#000000" stroke-width="1" fill="none"></path></g></g><g stroke-linecap="round"><g transform="translate(756.3824059257486 510) rotate(0 -59.2010258494426 -82.96754776214829)"><path d="M-0.38 -1.12 C-6.04 -22.92, -14.06 -103.7, -33.94 -131.32 C-53.83 -158.94, -105.14 -160.83, -119.67 -166.84 M1.62 0.9 C-4.11 -20.67, -14.12 -102.22, -34.4 -129.95 C-54.67 -157.67, -105.55 -159.35, -120.02 -165.43" stroke="#c92a2a" stroke-width="1" fill="none"></path></g><g transform="translate(756.3824059257486 510) rotate(0 -59.2010258494426 -82.96754776214829)"><path d="M-92.08 -167.19 C-99.67 -166.55, -107.78 -167.96, -120.63 -163.69 M-89.66 -168.49 C-98.23 -168.81, -107.03 -166.47, -119.21 -166.39" stroke="#c92a2a" stroke-width="1" fill="none"></path></g><g transform="translate(756.3824059257486 510) rotate(0 -59.2010258494426 -82.96754776214829)"><path d="M-96.92 -147.25 C-102.97 -152.55, -109.63 -159.93, -120.63 -163.69 M-94.51 -148.55 C-101.84 -154.65, -109.23 -158.13, -119.21 -166.39" stroke="#c92a2a" stroke-width="1" fill="none"></path></g></g><g transform="translate(260.5 136) rotate(0 61.5 26)"><text x="61.5" y="18" font-family="Virgil, Segoe UI Emoji" font-size="20px" fill="#000000" text-anchor="middle" style="white-space: pre;" direction="ltr">Ont</text><text x="61.5" y="44" font-family="Virgil, Segoe UI Emoji" font-size="20px" fill="#000000" text-anchor="middle" style="white-space: pre;" direction="ltr">autorité sur</text></g><g transform="translate(555.5 139) rotate(0 81 26)"><text x="81" y="18" font-family="Virgil, Segoe UI Emoji" font-size="20px" fill="#000000" text-anchor="middle" style="white-space: pre;" direction="ltr">Encadrent</text><text x="81" y="44" font-family="Virgil, Segoe UI Emoji" font-size="20px" fill="#000000" text-anchor="middle" style="white-space: pre;" direction="ltr">et accompagnent</text></g><g transform="translate(339.5 391) rotate(0 81 26)"><text x="81" y="18" font-family="Virgil, Segoe UI Emoji" font-size="20px" fill="#000000" text-anchor="middle" style="white-space: pre;" direction="ltr">Encadrent</text><text x="81" y="44" font-family="Virgil, Segoe UI Emoji" font-size="20px" fill="#000000" text-anchor="middle" style="white-space: pre;" direction="ltr">et accompagnent</text></g><g transform="translate(160.5 331) rotate(0 53.5 26)"><text x="53.5" y="18" font-family="Virgil, Segoe UI Emoji" font-size="20px" fill="#000000" text-anchor="middle" style="white-space: pre;" direction="ltr">Influencent</text><text x="53.5" y="44" font-family="Virgil, Segoe UI Emoji" font-size="20px" fill="#000000" text-anchor="middle" style="white-space: pre;" direction="ltr">(Lobbies)</text></g><g transform="translate(493.5 450) rotate(0 81 26)"><text x="81" y="18" font-family="Virgil, Segoe UI Emoji" font-size="20px" fill="#000000" text-anchor="middle" style="white-space: pre;" direction="ltr">Encadrent</text><text x="81" y="44" font-family="Virgil, Segoe UI Emoji" font-size="20px" fill="#000000" text-anchor="middle" style="white-space: pre;" direction="ltr">et accompagnent</text></g><g transform="translate(669 295) rotate(0 94.5 26)"><text x="94.5" y="18" font-family="Virgil, Segoe UI Emoji" font-size="20px" fill="#c92a2a" text-anchor="middle" style="white-space: pre;" direction="ltr">Influencent</text><text x="94.5" y="44" font-family="Virgil, Segoe UI Emoji" font-size="20px" fill="#c92a2a" text-anchor="middle" style="white-space: pre;" direction="ltr">Militantisme Citoyen</text></g><g stroke-linecap="round"><g transform="translate(813.277059172498 505.02014088709655) rotate(0 -101.93083789450912 -231.9400898708154)"><path d="M-0.74 0.81 C9.93 -60.57, 111.59 -290.4, 64.9 -367.98 C18.2 -445.56, -223.25 -448.5, -280.89 -464.69" stroke="#000000" stroke-width="1.5" fill="none" stroke-dasharray="1.5 7"></path></g><g transform="translate(813.277059172498 505.02014088709655) rotate(0 -101.93083789450912 -231.9400898708154)"><path d="M-250.15 -471.3 C-264.07 -470.52, -274.07 -468.33, -282.21 -464.15" stroke="#000000" stroke-width="1.5" fill="none" stroke-dasharray="1.5 5"></path></g><g transform="translate(813.277059172498 505.02014088709655) rotate(0 -101.93083789450912 -231.9400898708154)"><path d="M-253.13 -451 C-265.97 -457.78, -274.87 -463.17, -282.21 -464.15" stroke="#000000" stroke-width="1.5" fill="none" stroke-dasharray="1.5 5"></path></g></g><g transform="translate(885 100) rotate(0 30.5 13)"><text x="30.5" y="18" font-family="Virgil, Segoe UI Emoji" font-size="20px" fill="#000000" text-anchor="middle" style="white-space: pre;" direction="ltr">Élisent</text></g><g stroke-opacity="0.3" fill-opacity="0.3" stroke-linecap="round" transform="translate(658.5 269) rotate(0 109 55)"><path d="M85.16 2.15 C98.57 -0.54, 116.37 -0.2, 130.77 1.05 C145.17 2.3, 159.8 5, 171.57 9.66 C183.35 14.31, 193.88 22.14, 201.44 28.99 C209 35.84, 215.04 43.69, 216.91 50.75 C218.78 57.81, 217.41 64.12, 212.66 71.34 C207.9 78.57, 198.63 88.08, 188.4 94.09 C178.18 100.11, 165.09 104.61, 151.3 107.44 C137.51 110.27, 120.5 111.34, 105.68 111.07 C90.85 110.81, 76.01 109.12, 62.36 105.85 C48.71 102.57, 33.33 97.13, 23.77 91.42 C14.22 85.71, 9.1 78.93, 5.02 71.58 C0.94 64.23, -2.48 54.97, -0.71 47.31 C1.06 39.65, 7.28 32.11, 15.63 25.62 C23.98 19.13, 30.8 12.44, 49.39 8.36 C67.97 4.28, 108.2 1.07, 127.13 1.13 C146.06 1.2, 163.59 7.64, 162.98 8.76 M103.09 2.55 C117.02 0.39, 131.86 -0.47, 145.13 1.47 C158.41 3.41, 171.93 8.57, 182.73 14.19 C193.54 19.8, 204.07 28.25, 209.98 35.15 C215.89 42.05, 219.03 48.15, 218.21 55.6 C217.38 63.06, 211.93 72.51, 205.04 79.91 C198.16 87.31, 187.93 95.68, 176.9 100.02 C165.87 104.36, 153.34 104.6, 138.85 105.94 C124.36 107.27, 105.06 109.17, 89.95 108.02 C74.85 106.87, 60.65 103.38, 48.24 99.05 C35.83 94.72, 23.16 88.26, 15.49 82.02 C7.82 75.78, 3.99 68.38, 2.21 61.61 C0.44 54.84, 0.95 48.17, 4.84 41.39 C8.72 34.6, 15.91 27.02, 25.53 20.9 C35.15 14.79, 50.32 8.26, 62.57 4.71 C74.82 1.16, 92.72 0.13, 99.05 -0.38 C105.38 -0.89, 100.42 0.54, 100.56 1.65" stroke="#c92a2a" stroke-width="2" fill="none"></path></g><g stroke-linecap="round"><g transform="translate(219.89604877388012 580.0000000000001) rotate(0 266.9171482102151 38.2324129603802)"><path d="M1.17 -0.78 C53.15 12.3, 222.65 79.2, 311.23 78.92 C399.81 78.64, 495.94 11.14, 532.67 -2.46" stroke="#000000" stroke-width="1.5" fill="none" stroke-dasharray="1.5 7"></path></g><g transform="translate(219.89604877388012 580.0000000000001) rotate(0 266.9171482102151 38.2324129603802)"><path d="M510.7 17.83 C515.14 14.86, 522.87 7.81, 533.21 -1.93" stroke="#000000" stroke-width="1.5" fill="none" stroke-dasharray="1.5 5"></path></g><g transform="translate(219.89604877388012 580.0000000000001) rotate(0 266.9171482102151 38.2324129603802)"><path d="M501.56 -0.55 C508.29 0.86, 518.24 -1.72, 533.21 -1.93" stroke="#000000" stroke-width="1.5" fill="none" stroke-dasharray="1.5 5"></path></g></g><g transform="translate(470 677) rotate(0 53.5 26)"><text x="53.5" y="18" font-family="Virgil, Segoe UI Emoji" font-size="20px" fill="#000000" text-anchor="middle" style="white-space: pre;" direction="ltr">Influencent</text><text x="53.5" y="44" font-family="Virgil, Segoe UI Emoji" font-size="20px" fill="#000000" text-anchor="middle" style="white-space: pre;" direction="ltr">(Publicité)</text></g><g stroke-linecap="round"><g transform="translate(132.48500592325365 517.5) rotate(0 138.93507216781663 -242.2476008187435)"><path d="M0.35 1.16 C-2.86 -56.71, -71.78 -265.03, -19.07 -346.16 C33.64 -427.3, 260.57 -462.47, 316.6 -485.66" stroke="#000000" stroke-width="1.5" fill="none" stroke-dasharray="1.5 7"></path></g><g transform="translate(132.48500592325365 517.5) rotate(0 138.93507216781663 -242.2476008187435)"><path d="M294.27 -469.98 C297.94 -474.42, 307.85 -479.21, 317.44 -484.03" stroke="#000000" stroke-width="1.5" fill="none" stroke-dasharray="1.5 5"></path></g><g transform="translate(132.48500592325365 517.5) rotate(0 138.93507216781663 -242.2476008187435)"><path d="M288.61 -489.71 C294.26 -487.89, 305.97 -486.42, 317.44 -484.03" stroke="#000000" stroke-width="1.5" fill="none" stroke-dasharray="1.5 5"></path></g></g><g transform="translate(10 101) rotate(0 53.5 26)"><text x="53.5" y="18" font-family="Virgil, Segoe UI Emoji" font-size="20px" fill="#000000" text-anchor="middle" style="white-space: pre;" direction="ltr">Influencent</text><text x="53.5" y="44" font-family="Virgil, Segoe UI Emoji" font-size="20px" fill="#000000" text-anchor="middle" style="white-space: pre;" direction="ltr">(Lobbies)</text></g></svg>